<mxfile host="app.diagrams.net" modified="2021-11-17T06:21:15.285Z" agent="5.0 (Macintosh; Intel Mac OS X 10_15_7) AppleWebKit/537.36 (KHTML, like Gecko) Chrome/95.0.4638.69 Safari/537.36" etag="pcPdcDQoz8ajYpnvienJ" version="15.7.4" type="github">
  <diagram id="Vy6IA38wdvWcA2MXzy7X" name="Page-1">
    <mxGraphModel dx="1527" dy="981" grid="1" gridSize="10" guides="1" tooltips="1" connect="1" arrows="1" fold="1" page="1" pageScale="1" pageWidth="827" pageHeight="1169" math="0" shadow="0">
      <root>
        <mxCell id="0" />
        <mxCell id="1" parent="0" />
        <mxCell id="f6dS_MW6rFt-GkWWYghG-6" style="edgeStyle=orthogonalEdgeStyle;rounded=0;orthogonalLoop=1;jettySize=auto;html=1;exitX=0.5;exitY=1;exitDx=0;exitDy=0;entryX=0.495;entryY=0;entryDx=0;entryDy=0;entryPerimeter=0;" edge="1" parent="1" source="f6dS_MW6rFt-GkWWYghG-1" target="f6dS_MW6rFt-GkWWYghG-5">
          <mxGeometry relative="1" as="geometry">
            <mxPoint x="533" y="190" as="targetPoint" />
          </mxGeometry>
        </mxCell>
        <mxCell id="f6dS_MW6rFt-GkWWYghG-1" value="&lt;pre style=&quot;background-color: #212121 ; color: #eeffff ; font-family: &amp;#34;menlo&amp;#34; , monospace ; font-size: 9.0pt&quot;&gt;&lt;span style=&quot;color: #82aaff&quot;&gt;ChampionshipService.transfer()&lt;/span&gt;&lt;/pre&gt;" style="rounded=1;whiteSpace=wrap;html=1;fillColor=#fff2cc;strokeColor=#d6b656;" vertex="1" parent="1">
          <mxGeometry x="415" y="100" width="230" height="30" as="geometry" />
        </mxCell>
        <mxCell id="f6dS_MW6rFt-GkWWYghG-2" value="projects/web-legacy/src/components/championship/championship-service.js" style="text;html=1;strokeColor=#d6b656;fillColor=#fff2cc;align=center;verticalAlign=middle;whiteSpace=wrap;rounded=0;" vertex="1" parent="1">
          <mxGeometry x="325" y="80" width="410" height="20" as="geometry" />
        </mxCell>
        <mxCell id="f6dS_MW6rFt-GkWWYghG-3" value="&lt;pre style=&quot;background-color: #212121 ; color: #eeffff ; font-family: &amp;#34;menlo&amp;#34; , monospace ; font-size: 9.0pt&quot;&gt;&lt;span style=&quot;color: #82aaff&quot;&gt;transferTeams&lt;/span&gt;&lt;span style=&quot;color: #89ddff&quot;&gt;(&lt;/span&gt;&lt;span style=&quot;color: #f78c6c&quot;&gt;targetChampionshipId&lt;/span&gt;&lt;span style=&quot;color: #89ddff&quot;&gt;)&lt;/span&gt;&lt;/pre&gt;" style="rounded=1;whiteSpace=wrap;html=1;fillColor=#f8cecc;strokeColor=#b85450;" vertex="1" parent="1">
          <mxGeometry x="40" y="240" width="260" height="30" as="geometry" />
        </mxCell>
        <mxCell id="f6dS_MW6rFt-GkWWYghG-7" style="edgeStyle=orthogonalEdgeStyle;rounded=0;orthogonalLoop=1;jettySize=auto;html=1;exitX=0.5;exitY=1;exitDx=0;exitDy=0;entryX=0.5;entryY=0;entryDx=0;entryDy=0;" edge="1" parent="1" source="f6dS_MW6rFt-GkWWYghG-5" target="f6dS_MW6rFt-GkWWYghG-3">
          <mxGeometry relative="1" as="geometry" />
        </mxCell>
        <mxCell id="f6dS_MW6rFt-GkWWYghG-10" style="edgeStyle=orthogonalEdgeStyle;rounded=0;orthogonalLoop=1;jettySize=auto;html=1;exitX=0.5;exitY=1;exitDx=0;exitDy=0;entryX=0.5;entryY=0;entryDx=0;entryDy=0;" edge="1" parent="1" source="f6dS_MW6rFt-GkWWYghG-5" target="f6dS_MW6rFt-GkWWYghG-9">
          <mxGeometry relative="1" as="geometry" />
        </mxCell>
        <mxCell id="f6dS_MW6rFt-GkWWYghG-12" style="edgeStyle=orthogonalEdgeStyle;rounded=0;orthogonalLoop=1;jettySize=auto;html=1;exitX=0.5;exitY=1;exitDx=0;exitDy=0;entryX=0.5;entryY=0;entryDx=0;entryDy=0;" edge="1" parent="1" source="f6dS_MW6rFt-GkWWYghG-5" target="f6dS_MW6rFt-GkWWYghG-11">
          <mxGeometry relative="1" as="geometry" />
        </mxCell>
        <mxCell id="f6dS_MW6rFt-GkWWYghG-5" value="projects/web-legacy/src/pages/championship/current-championship-service.js" style="text;html=1;strokeColor=#d6b656;fillColor=#fff2cc;align=center;verticalAlign=middle;whiteSpace=wrap;rounded=0;" vertex="1" parent="1">
          <mxGeometry x="320" y="160" width="420" height="30" as="geometry" />
        </mxCell>
        <mxCell id="f6dS_MW6rFt-GkWWYghG-8" value="not used" style="text;html=1;strokeColor=#b85450;fillColor=#f8cecc;align=center;verticalAlign=middle;whiteSpace=wrap;rounded=0;" vertex="1" parent="1">
          <mxGeometry x="140" y="270" width="60" height="30" as="geometry" />
        </mxCell>
        <mxCell id="f6dS_MW6rFt-GkWWYghG-9" value="&lt;pre style=&quot;background-color: #212121 ; color: #eeffff ; font-family: &amp;#34;menlo&amp;#34; , monospace ; font-size: 9.0pt&quot;&gt;&lt;pre style=&quot;font-family: &amp;#34;menlo&amp;#34; , monospace ; font-size: 9pt&quot;&gt;&lt;span style=&quot;color: #82aaff&quot;&gt;transferTeam&lt;/span&gt;&lt;span style=&quot;color: #89ddff&quot;&gt;(&lt;/span&gt;&lt;span style=&quot;color: #f78c6c&quot;&gt;targetChampionshipId&lt;/span&gt;&lt;span style=&quot;color: #89ddff&quot;&gt;, &lt;/span&gt;&lt;span style=&quot;color: #f78c6c&quot;&gt;teamId&lt;/span&gt;&lt;span style=&quot;color: #89ddff&quot;&gt;)&lt;/span&gt;&lt;/pre&gt;&lt;/pre&gt;" style="rounded=1;whiteSpace=wrap;html=1;fillColor=#f8cecc;strokeColor=#b85450;" vertex="1" parent="1">
          <mxGeometry x="372" y="240" width="316" height="30" as="geometry" />
        </mxCell>
        <mxCell id="f6dS_MW6rFt-GkWWYghG-16" style="edgeStyle=orthogonalEdgeStyle;rounded=0;orthogonalLoop=1;jettySize=auto;html=1;exitX=0.5;exitY=1;exitDx=0;exitDy=0;entryX=0.5;entryY=0;entryDx=0;entryDy=0;" edge="1" parent="1" source="f6dS_MW6rFt-GkWWYghG-11" target="f6dS_MW6rFt-GkWWYghG-14">
          <mxGeometry relative="1" as="geometry" />
        </mxCell>
        <mxCell id="f6dS_MW6rFt-GkWWYghG-11" value="&lt;pre style=&quot;background-color: #212121 ; color: #eeffff ; font-family: &amp;#34;menlo&amp;#34; , monospace ; font-size: 9.0pt&quot;&gt;&lt;pre style=&quot;font-family: &amp;#34;menlo&amp;#34; , monospace ; font-size: 9pt&quot;&gt;&lt;pre style=&quot;font-family: &amp;#34;menlo&amp;#34; , monospace ; font-size: 9pt&quot;&gt;&lt;span style=&quot;color: #82aaff&quot;&gt;importTeams&lt;/span&gt;&lt;span style=&quot;color: #89ddff&quot;&gt;(&lt;/span&gt;&lt;span style=&quot;color: #f78c6c&quot;&gt;sourceChampionshipId&lt;/span&gt;&lt;span style=&quot;color: #89ddff&quot;&gt;)&lt;/span&gt;&lt;/pre&gt;&lt;/pre&gt;&lt;/pre&gt;" style="rounded=1;whiteSpace=wrap;html=1;fillColor=#fff2cc;strokeColor=#d6b656;" vertex="1" parent="1">
          <mxGeometry x="886.25" y="240" width="255" height="30" as="geometry" />
        </mxCell>
        <mxCell id="f6dS_MW6rFt-GkWWYghG-13" value="not used" style="text;html=1;strokeColor=#b85450;fillColor=#f8cecc;align=center;verticalAlign=middle;whiteSpace=wrap;rounded=0;" vertex="1" parent="1">
          <mxGeometry x="500" y="270" width="60" height="30" as="geometry" />
        </mxCell>
        <mxCell id="f6dS_MW6rFt-GkWWYghG-18" style="edgeStyle=orthogonalEdgeStyle;rounded=0;orthogonalLoop=1;jettySize=auto;html=1;exitX=0.5;exitY=1;exitDx=0;exitDy=0;entryX=0.5;entryY=0;entryDx=0;entryDy=0;" edge="1" parent="1" source="f6dS_MW6rFt-GkWWYghG-14" target="f6dS_MW6rFt-GkWWYghG-17">
          <mxGeometry relative="1" as="geometry" />
        </mxCell>
        <mxCell id="f6dS_MW6rFt-GkWWYghG-14" value="projects/web-legacy/src/pages/championship/settings/details/championship-settings-details-controller.js" style="text;html=1;strokeColor=#d6b656;fillColor=#fff2cc;align=center;verticalAlign=middle;whiteSpace=wrap;rounded=0;" vertex="1" parent="1">
          <mxGeometry x="735" y="330" width="557.5" height="30" as="geometry" />
        </mxCell>
        <mxCell id="f6dS_MW6rFt-GkWWYghG-17" value="&lt;pre style=&quot;background-color: #212121 ; color: #eeffff ; font-family: &amp;#34;menlo&amp;#34; , monospace ; font-size: 9.0pt&quot;&gt;&lt;span style=&quot;color: #c792ea ; font-style: italic&quot;&gt;this&lt;/span&gt;&lt;span style=&quot;color: #89ddff&quot;&gt;.&lt;/span&gt;&lt;span style=&quot;color: #82aaff&quot;&gt;_importTeams&lt;/span&gt;&lt;span style=&quot;color: #89ddff&quot;&gt;.&lt;/span&gt;&lt;span style=&quot;color: #82aaff&quot;&gt;bind&lt;/span&gt;&lt;span style=&quot;color: #89ddff&quot;&gt;(&lt;/span&gt;&lt;span style=&quot;color: #c792ea ; font-style: italic&quot;&gt;this&lt;/span&gt;&lt;span style=&quot;color: #89ddff&quot;&gt;)&lt;/span&gt;&lt;/pre&gt;" style="rounded=1;whiteSpace=wrap;html=1;fillColor=#fff2cc;strokeColor=#d6b656;" vertex="1" parent="1">
          <mxGeometry x="900.75" y="410" width="226" height="30" as="geometry" />
        </mxCell>
      </root>
    </mxGraphModel>
  </diagram>
</mxfile>
